<?xml version="1.0" encoding="windows-1252"?>
<!-- Generator: Adobe Illustrator 15.1.0, SVG Export Plug-In . SVG Version: 6.00 Build 0)  -->
<!DOCTYPE svg PUBLIC "-//W3C//DTD SVG 1.1//EN" "http://www.w3.org/Graphics/SVG/1.1/DTD/svg11.dtd">
<svg version="1.1" xmlns="http://www.w3.org/2000/svg" xmlns:xlink="http://www.w3.org/1999/xlink" x="0px" y="0px" width="512px" height="512px" viewBox="0 0 512 512" style="enable-background:new 0 0 512 512;" xml:space="preserve">
<g id="icon-filter">
	<g>
		<path style="fill:#242224;" d="M435.2,134.075c0-6.075-120.269,147.525-128,147.525H204.8c-7.732,0-128-147.525-128-147.525    v-18.55c0-7.249,6.268-13.125,14-13.125h330.4c7.731,0,14,5.876,14,13.125V134.075z"/>
		<path style="fill:#242224;" d="M307.2,420.199c0,8.283-6.716,15-15,15c0,0-87.4-57.917-87.4-66.2v-98c0-8.284,6.716-15,15-15h72.4    c8.284,0,15,6.716,15,15V420.199z"/>
	</g>
</g>
<g id="Ebene_1">
</g>
</svg>